<?xml version="1.0" encoding="UTF-8" standalone="no"?><!DOCTYPE svg PUBLIC "-//W3C//DTD SVG 1.1//EN" "http://www.w3.org/Graphics/SVG/1.1/DTD/svg11.dtd"><svg width="100%" height="100%" viewBox="0 0 308 162" version="1.1" xmlns="http://www.w3.org/2000/svg" xmlns:xlink="http://www.w3.org/1999/xlink" xml:space="preserve" xmlns:serif="http://www.serif.com/" style="fill-rule:evenodd;clip-rule:evenodd;stroke-linejoin:round;stroke-miterlimit:1.41421;"><rect id="Tavola-da-disegno1" serif:id="Tavola da disegno1" x="0" y="0" width="307.5" height="161.25" style="fill:none;"/><g id="logo"><g><path d="M73.044,45.768l10.818,0l0,-45.141l28.898,0l0,52.734c1.547,-1.968 3.428,-3.726 5.643,-5.273c2.215,-1.547 4.605,-2.813 7.172,-3.797c2.566,-0.984 5.22,-1.74 7.963,-2.268c2.742,-0.527 5.414,-0.791 8.015,-0.791c8.016,0 15.522,1.495 22.518,4.483c6.996,2.988 13.096,7.154 18.299,12.498c5.203,5.344 9.316,11.654 12.34,18.932c3.023,7.277 4.535,15.24 4.535,23.888c0,8.86 -1.512,16.946 -4.535,24.258c-3.024,7.313 -7.137,13.588 -12.34,18.826c-5.203,5.238 -11.303,9.299 -18.299,12.182c-6.996,2.883 -14.502,4.324 -22.518,4.324c-7.945,0 -15.416,-1.477 -22.412,-4.43c-6.996,-2.953 -13.113,-7.066 -18.351,-12.339c-5.239,-5.274 -9.37,-11.549 -12.393,-18.827c-3.023,-7.277 -4.535,-15.275 -4.535,-23.994l0,-26.578l-10.818,0l0,33.539c0,6.961 -1.319,13.5 -3.955,19.617c-2.637,6.118 -6.258,11.479 -10.864,16.084c-4.605,4.606 -9.967,8.227 -16.084,10.864c-6.117,2.636 -12.656,3.955 -19.617,3.955l-21.832,0l0,-28.688l21.832,0c3.024,0 5.871,-0.58 8.543,-1.74c2.672,-1.16 4.992,-2.725 6.961,-4.693c1.969,-1.969 3.516,-4.272 4.641,-6.909c1.125,-2.636 1.687,-5.466 1.687,-8.49l0,-33.539l-21.832,0l0,-28.687l21.832,0l0,-45.141l28.688,0l0,45.141Zm97.197,55.265c0,-4.359 -0.756,-8.42 -2.268,-12.181c-1.511,-3.762 -3.568,-7.014 -6.17,-9.756c-2.601,-2.742 -5.642,-4.887 -9.123,-6.434c-3.48,-1.547 -7.189,-2.32 -11.127,-2.32c-3.937,0 -7.646,0.861 -11.127,2.584c-3.48,1.722 -6.521,4.008 -9.123,6.855c-2.601,2.848 -4.64,6.117 -6.117,9.809c-1.476,3.691 -2.215,7.506 -2.215,11.443c0,4.36 0.739,8.403 2.215,12.129c1.477,3.727 3.516,6.961 6.117,9.703c2.602,2.742 5.643,4.905 9.123,6.487c3.481,1.582 7.19,2.373 11.127,2.373c3.938,0 7.647,-0.791 11.127,-2.373c3.481,-1.582 6.522,-3.745 9.123,-6.487c2.602,-2.742 4.659,-5.976 6.17,-9.703c1.512,-3.726 2.268,-7.769 2.268,-12.129Zm136.567,12.34l-65.813,0c-4.921,0 -9.562,-0.932 -13.921,-2.795c-4.36,-1.863 -8.157,-4.43 -11.391,-7.699c-3.234,-3.27 -5.801,-7.066 -7.699,-11.391c-1.899,-4.324 -2.848,-8.982 -2.848,-13.974c0,-4.922 0.949,-9.457 2.848,-13.606c1.898,-4.148 4.465,-7.699 7.699,-10.652c3.234,-2.953 7.031,-5.256 11.391,-6.908c4.359,-1.653 9,-2.479 13.921,-2.479l29.954,0c1.968,0 3.656,-0.721 5.062,-2.162c1.406,-1.441 2.109,-3.182 2.109,-5.221c0,-1.968 -0.703,-3.656 -2.109,-5.062c-1.406,-1.406 -3.094,-2.11 -5.062,-2.11l-147.455,0l0,-28.687l147.455,0c4.992,0 9.668,0.932 14.027,2.795c4.359,1.863 8.156,4.412 11.391,7.646c3.234,3.235 5.783,7.032 7.646,11.391c1.863,4.359 2.795,9.035 2.795,14.027c0,4.993 -0.932,9.668 -2.795,14.028c-1.863,4.359 -4.412,8.174 -7.646,11.443c-3.235,3.27 -7.032,5.854 -11.391,7.752c-4.359,1.898 -9.035,2.848 -14.027,2.848l-27.822,0c0,0 -2.887,-0.013 -3.049,-0.013c-3.333,0 -6.039,2.706 -6.039,6.039c0,3.333 2.706,6.038 6.039,6.038c0.023,0 59.168,0.057 66.074,0.064c0.363,0 0.656,0.294 0.656,0.656c0,4.277 0,28.032 0,28.032Z" style="fill:#fff;"/><circle cx="292.457" cy="146.272" r="14.351" style="fill:#50d926;"/><circle cx="253.386" cy="146.272" r="14.351" style="fill:#50d926;"/></g></g></svg>